#!OML:ASF C:\Vicon Data\Big\jianyuan-12\jianyuan\Session 1\Capture.male.ASF
:FULLY-SPECIFIED
:DEGREES
112
root -10.002177 17.300018 -15.298245 1.848282 -20.151031 6.585171
lowerback -8.521709 0.714801 -2.576997 
upperback 2.912732 1.340726 -0.917338 
thorax 7.828253 0.559155 0.685349 
lowerneck 2.922175 -11.693998 -5.415613 
upperneck -5.182785 -15.292316 12.575945 
head -0.588207 -7.799882 4.631640 
rclavicle 0.000000 0.000000 
rhumerus -23.494475 -17.892056 -87.602938 
rradius 43.357738 
rwrist 23.997692 
rhand -21.161108 -4.797427 
rfingers 0.000000 
rthumb 5.218769 -34.713161 
lclavicle 0.000000 0.000000 
lhumerus -57.853814 44.478512 47.414518 
lradius 23.204956 
lwrist -66.164151 
lhand -6.120938 3.941901 
lfingers 0.000000 
lthumb 19.716141 32.961989 
rfemur 1.691575 3.435245 24.416047 
rtibia 23.385678 
rfoot -26.866802 -0.242725 
rtoes 1.693937 
lfemur -27.255959 -7.759129 -16.879545 
ltibia 8.457081 
lfoot -10.726018 1.466373 
ltoes -36.503234 
113
root -10.022145 17.289324 -15.227537 1.797481 -20.275684 6.580528
lowerback -8.463205 0.734340 -2.524513 
upperback 2.915775 1.360835 -0.941023 
thorax 7.798660 0.572760 0.632979 
lowerneck 2.983871 -11.706470 -5.447877 
upperneck -5.308624 -15.302529 12.579557 
head -0.631448 -7.809213 4.646335 
rclavicle 0.000000 0.000000 
rhumerus -23.607027 -17.988725 -87.564497 
rradius 43.335397 
rwrist 24.068973 
rhand -21.135909 -4.675758 
rfingers 0.000000 
rthumb 5.243159 -34.590903 
lclavicle 0.000000 0.000000 
lhumerus -58.080149 44.839943 46.867714 
lradius 23.071826 
lwrist -66.710162 
lhand -6.190950 3.898412 
lfingers 0.000000 
lthumb 19.648786 32.925404 
rfemur 1.910772 3.403648 24.424553 
rtibia 23.615762 
rfoot -26.903419 -0.198212 
rtoes 1.473859 
lfemur -27.183560 -7.708185 -17.019961 
ltibia 8.535878 
lfoot -10.556480 1.381808 
ltoes -36.811811 
114
root -10.040054 17.280387 -15.156325 1.746906 -20.349550 6.608730
lowerback -8.358908 0.730990 -2.315455 
upperback 2.873393 1.344158 -1.138006 
thorax 7.702423 0.582608 0.303772 
lowerneck 3.046274 -11.684404 -5.254893 
upperneck -5.343660 -15.255833 12.624552 
head -0.667215 -7.791300 4.639390 
rclavicle 0.000000 0.000000 
rhumerus -23.762193 -18.001579 -87.799549 
rradius 43.287687 
rwrist 23.900130 
rhand -21.263385 -4.823896 
rfingers 0.000000 
rthumb 5.119996 -34.742060 
lclavicle 0.000000 0.000000 
lhumerus -58.054632 44.839898 46.466683 
lradius 23.006926 
lwrist -66.892574 
lhand -6.342235 3.983411 
lfingers 0.000000 
lthumb 19.503306 33.025260 
rfemur 2.090930 3.256783 24.380275 
rtibia 23.861012 
rfoot -26.946516 -0.224007 
rtoes 1.057596 
lfemur -27.167872 -7.713978 -17.199669 
ltibia 8.735454 
lfoot -10.335323 1.314499 
ltoes -36.675923 
115
root -10.055850 17.276053 -15.082478 1.810044 -20.506910 6.754286
lowerback -8.471674 0.740375 -2.298474 
upperback 2.824283 1.368567 -1.272875 
thorax 7.718531 0.599624 0.157338 
lowerneck 3.179848 -11.663691 -5.213972 
upperneck -5.515252 -15.207537 12.740951 
head -0.737057 -7.777195 4.684430 
rclavicle 0.000000 0.000000 
rhumerus -23.822722 -18.191414 -87.850303 
rradius 43.183139 
rwrist 24.062320 
rhand -21.324395 -5.107378 
rfingers 0.000000 
rthumb 5.061084 -35.026920 
lclavicle 0.000000 0.000000 
lhumerus -58.016679 44.946874 46.242013 
lradius 22.966648 
lwrist -66.959872 
lhand -6.333559 4.086423 
lfingers 0.000000 
lthumb 19.511660 33.127391 
rfemur 2.098834 3.200566 24.153314 
rtibia 24.090601 
rfoot -26.892540 -0.147956 
rtoes 0.962990 
lfemur -27.337960 -7.652783 -17.510524 
ltibia 9.086998 
lfoot -10.149165 1.127838 
ltoes -36.612824 
116
root -10.077229 17.268473 -15.009345 1.837076 -20.739030 6.867071
lowerback -8.555236 0.796263 -2.426520 
upperback 2.789132 1.461600 -1.290546 
thorax 7.725208 0.639453 0.225651 
lowerneck 3.285019 -11.683048 -5.208933 
upperneck -5.686730 -15.220391 12.754404 
head -0.802599 -7.790898 4.701688 
rclavicle 0.000000 0.000000 
rhumerus -23.947897 -18.369672 -87.696167 
rradius 43.124917 
rwrist 24.129289 
rhand -21.200680 -4.855001 
rfingers 0.000000 
rthumb 5.180620 -34.771643 
lclavicle 0.000000 0.000000 
lhumerus -58.141901 45.205025 45.964834 
lradius 22.940602 
lwrist -67.298451 
lhand -6.347418 4.154011 
lfingers 0.000000 
lthumb 19.498341 33.196316 
rfemur 2.170135 3.527339 24.071497 
rtibia 24.359822 
rfoot -26.952834 -0.221956 
rtoes 1.496215 
lfemur -27.442180 -7.500751 -17.765063 
ltibia 9.460404 
lfoot -9.927891 0.994257 
ltoes -37.157290 
117
root -10.100347 17.258862 -14.932610 1.710810 -20.932230 6.903563
lowerback -8.497028 0.837281 -2.521932 
upperback 2.817342 1.524885 -1.269098 
thorax 7.717704 0.665244 0.310414 
lowerneck 3.222807 -11.749443 -5.217239 
upperneck -5.670735 -15.313007 12.714186 
head -0.782235 -7.834118 4.683933 
rclavicle 0.000000 0.000000 
rhumerus -24.128572 -18.388012 -87.537690 
rradius 43.140007 
rwrist 24.132292 
rhand -21.271380 -4.844665 
rfingers 0.000000 
rthumb 5.112299 -34.762993 
lclavicle 0.000000 0.000000 
lhumerus -58.200462 45.439426 45.786359 
lradius 22.876559 
lwrist -67.492763 
lhand -6.446897 4.226553 
lfingers 0.000000 
lthumb 19.402713 33.278508 
rfemur 2.493911 3.705803 24.056263 
rtibia 24.597121 
rfoot -27.053104 -0.152620 
rtoes 2.120404 
lfemur -27.367122 -7.392521 -17.963982 
ltibia 9.936015 
lfoot -9.778835 0.761268 
ltoes -36.578735 
